<svg id="Camada_1" data-name="Camada 1" xmlns="http://www.w3.org/2000/svg" viewBox="0 0 459.98 185.01"><defs><style>.cls-1{fill:#212121;}</style></defs><path class="cls-1" d="M6.47,125.19V58.83c0-19.06,9.88-30.36,28.59-30.36s28.59,11.3,28.59,30.36V71.89H45.3V57.6c0-8.12-3.89-11.48-9.71-11.48s-9.71,3.36-9.71,11.48v69c0,8.12,3.89,11.29,9.71,11.29s9.71-3.17,9.71-11.29V107.72H63.65v17.47c0,19.07-9.88,30.36-28.59,30.36S6.47,144.26,6.47,125.19Z"/><path class="cls-1" d="M74.25,124.49V59.54c0-19.77,10.41-31.07,29.47-31.07s29.48,11.3,29.48,31.07v64.95c0,19.77-10.42,31.06-29.48,31.06S74.25,144.26,74.25,124.49Zm39.53,1.23V58.3c0-8.82-3.88-12.18-10.06-12.18S93.66,49.48,93.66,58.3v67.42c0,8.83,3.88,12.18,10.06,12.18S113.78,134.55,113.78,125.72Z"/><path class="cls-1" d="M146.26,30.24h19.41v105.9h32v17.65H146.26Z"/><path class="cls-1" d="M207,30.24h19.41v105.9h31.95v17.65H207Z"/><path class="cls-1" d="M264.34,124.49v-7.06H282.7v8.47c0,8.83,3.88,12,10.06,12s10.06-3.17,10.06-12.35c0-10.24-3.88-16.77-16.59-27.89C270,83.36,264.69,73.3,264.69,59.18c0-19.41,10.07-30.71,28.95-30.71s28.24,11.3,28.24,31.07v5.11H303.52V58.3c0-8.82-3.53-12.18-9.7-12.18s-9.71,3.36-9.71,11.83c0,9,4.06,15.53,16.77,26.65,16.24,14.3,21.35,24.18,21.35,39.54,0,20.12-10.23,31.41-29.3,31.41S264.34,144.26,264.34,124.49Z"/><path class="cls-1" d="M366.35,110.79h8v8h-8Z"/><path class="cls-1" d="M379.52,106.57V78.26c0-8.13,4.22-13,12.2-13s12.2,4.82,12.2,13v5.57h-7.83v-6.1c0-3.46-1.66-4.89-4.14-4.89s-4.14,1.43-4.14,4.89v29.45c0,3.46,1.65,4.82,4.14,4.82s4.14-1.36,4.14-4.82V99.12h7.83v7.45c0,8.14-4.21,13-12.2,13S379.52,114.71,379.52,106.57Z"/><path class="cls-1" d="M408.44,106.27V78.56c0-8.43,4.45-13.25,12.58-13.25s12.57,4.82,12.57,13.25v27.71c0,8.44-4.44,13.26-12.57,13.26S408.44,114.71,408.44,106.27Zm16.87.53V78c0-3.76-1.66-5.19-4.29-5.19s-4.29,1.43-4.29,5.19V106.8c0,3.77,1.65,5.2,4.29,5.2S425.31,110.57,425.31,106.8Z"/><rect class="cls-1" x="345.34" y="136.75" width="108.65" height="17.65"/><rect class="cls-1" x="345.34" y="30.84" width="108.65" height="17.65"/></svg>